# xmcd CD database file
#
# Track frame offsets:
#	150
#	26872
#	47217
#	65592
#	84865
#	106987
#	129922
#	153912
#	172972
#	190422
#	210242
#	235838
#	254554
#	278870
#
# Disc length: 3966 seconds
#
# Revision: 3
# Processed by: cddbd v1.5.2PL0 Copyright (c) Steve Scherf et al.
# Submitted via: CDex 1.70beta2
#
DISCID=bb0f7c0e
DTITLE=MARILYN MANSON - EAT ME, DRINK ME
DYEAR=2007
DGENRE=Heavy Metal
TTITLE0=If I Was Your Vampire
TTITLE1=Putting Holes In Happiness
TTITLE2=The Red Carpet Grave
TTITLE3=They Said That Hell's Not Hot
TTITLE4=Just A Car Crash Away
TTITLE5=Heart-Shaped Glasses (When The Heart Guides The Hand)
TTITLE6=Evidence
TTITLE7=Are You The Rabbit ?
TTITLE8=Multilation Is The Most Sincere Form Of Flattery
TTITLE9=You And Me And The Devil Makes 3
TTITLE10=Eat Me, Drink Me
TTITLE11=Heart-Shaped Glasses (When The Heart Guides The Hand) - Inhuman Remix by Jade E Puget [Bonus Track]
TTITLE12=Heart-Shaped Glasses (When The Heart Guides The Hand) - Space Cowboy Remix [Bonus Track]
TTITLE13=Putting Holes In Happiness (Acoustic Version) [Bonus Track]
EXTD=YEAR: 2007
EXTT0=
EXTT1=
EXTT2=
EXTT3=
EXTT4=
EXTT5=
EXTT6=
EXTT7=
EXTT8=
EXTT9=
EXTT10=
EXTT11=
EXTT12=
EXTT13=
PLAYORDER=
